<?xml version="1.0" encoding="UTF-8"?>
<svg width="451px" height="132px" viewBox="0 0 451 132" version="1.1" xmlns="http://www.w3.org/2000/svg" xmlns:xlink="http://www.w3.org/1999/xlink">
    <!-- Generator: Sketch 53.2 (72643) - https://sketchapp.com -->
    <title>Untitled</title>
    <desc>Created with Sketch.</desc>
    <g id="Page-1" stroke="none" stroke-width="1" fill="none" fill-rule="evenodd">
        <rect id="Rectangle" stroke="#979797" fill="#838080" transform="translate(44.135344, 41.604074) rotate(56.000000) translate(-44.135344, -41.604074) " x="2.13534402" y="32.1040735" width="84" height="19"></rect>
        <rect id="Rectangle" stroke="#979797" fill="#838080" transform="translate(43.661023, 93.628825) rotate(-46.000000) translate(-43.661023, -93.628825) " x="6.16102348" y="83.6288253" width="75" height="20"></rect>
        <rect id="Rectangle" stroke="#979797" fill="#838080" transform="translate(109.229440, 67.831881) rotate(18.000000) translate(-109.229440, -67.831881) " x="99.2294401" y="11.8318806" width="20" height="112"></rect>
        <rect id="Rectangle" stroke="#979797" fill="#838080" transform="translate(143.516441, 64.200320) rotate(-22.000000) translate(-143.516441, -64.200320) " x="133.516441" y="-0.299680222" width="20" height="129"></rect>
        <path d="" id="Path-2" stroke="#979797"></path>
        <rect id="Rectangle" stroke="#979797" fill="#838080" transform="translate(206.373977, 67.711269) rotate(-21.000000) translate(-206.373977, -67.711269) " x="196.373977" y="7.21126949" width="20" height="121"></rect>
        <rect id="Rectangle" stroke="#979797" fill="#838080" x="254.829271" y="7.13907538" width="20" height="121"></rect>
        <rect id="Rectangle" stroke="#979797" fill="#838080" transform="translate(329.710938, 20.500000) rotate(-90.000000) translate(-329.710938, -20.500000) " x="319.710938" y="-12" width="20" height="65"></rect>
        <rect id="Rectangle" stroke="#979797" fill="#838080" transform="translate(329.710938, 69.500000) rotate(-90.000000) translate(-329.710938, -69.500000) " x="319.710938" y="37" width="20" height="65"></rect>
        <rect id="Rectangle" stroke="#979797" fill="#838080" transform="translate(329.710938, 118.500000) rotate(-90.000000) translate(-329.710938, -118.500000) " x="319.710938" y="86" width="20" height="65"></rect>
        <rect id="Rectangle" stroke="#979797" fill="#838080" x="385.210938" y="10.5" width="20" height="121"></rect>
        <rect id="Rectangle" stroke="#979797" fill="#838080" transform="translate(417.710938, 121.500000) rotate(-90.000000) translate(-417.710938, -121.500000) " x="407.710938" y="89" width="20" height="65"></rect>
    </g>
</svg>